<svg width="30" height="30" viewBox="0 0 30 30" fill="none" xmlns="http://www.w3.org/2000/svg">
<rect width="30" height="30" rx="15" fill="#1A1B22"/>
<path d="M11.1903 19.874C11.4919 19.874 11.7587 19.7696 11.9559 19.5607L14.9951 16.52L18.0342 19.5607C18.2314 19.7579 18.4866 19.874 18.7998 19.874C19.3914 19.874 19.8554 19.4098 19.8554 18.8179C19.8554 18.5278 19.7394 18.2725 19.5422 18.0752L16.4915 15.0229L19.5422 11.9591C19.7626 11.7386 19.867 11.5065 19.867 11.228C19.867 10.6361 19.403 10.1719 18.8114 10.1719C18.5214 10.1719 18.2778 10.2647 18.0574 10.4852L14.9951 13.5374L11.9327 10.4968C11.7355 10.2879 11.4919 10.1835 11.1903 10.1835C10.5988 10.1835 10.1348 10.6361 10.1348 11.228C10.1348 11.5181 10.2508 11.7734 10.4596 11.9707L13.4987 15.0229L10.4596 18.0868C10.2508 18.2725 10.1348 18.5394 10.1348 18.8179C10.1348 19.4098 10.5988 19.874 11.1903 19.874Z" fill="white"/>
</svg>
